<?xml version="1.0" standalone="no"?>
<!DOCTYPE svg PUBLIC "-//W3C//DTD SVG 1.1//EN" "http://www.w3.org/Graphics/SVG/1.1/DTD/svg11.dtd">
<svg class="icon" style="width: 1em;height: 1em;vertical-align: middle;fill: currentColor;overflow: hidden;" viewBox="0 0 1024 1024" version="1.1" xmlns="http://www.w3.org/2000/svg"><path d="M226.20456846 606.16469049c23.33480163-20.15278307 35.00220189-46.49146595 35.00220189-79.01954048 0-26.16054557-7.69016832-47.41940907-23.06934216-63.77193244-15.37917383-16.34903154-35.8882304-26.02665187-61.51785813-29.03519005l0-1.06067285c20.50439965-6.71681763 36.59262976-18.03143737 48.26003001-33.94036509 11.66740025-15.91009166 17.50168349-34.64592839 17.50168348-56.21565781 0-25.80776391-9.63686969-46.75576035-28.90362424-62.84398934-19.27024754-16.08357205-45.34347093-24.13001501-78.22316317-24.130015L27.06587079 256.14732629l0 380.24595684 110.83855986 0C173.43638869 636.39328313 202.86976683 626.31747357 226.20456846 606.16469049zM71.61296441 296.4517285l51.17775303 0c48.61164658 0 72.9197989 18.47503417 72.9197989 55.41928049 0 21.39159325-6.9857701 37.96416853-20.94799645 49.7188921-13.96688327 11.75821539-33.14515171 17.63441323-57.5406262 17.63441322l-45.60893042 0L71.61296441 296.4517285zM71.61296441 459.26325589l51.17775303 0c61.1615835 0 91.74644963 22.4522661 91.74644963 67.35214024 0 21.56856547-7.20465806 38.54049507-21.61164515 50.91229354-14.40931613 12.37529259-34.69482781 18.56119125-60.85537337 18.56119126l-60.45718528 0L71.61296441 459.26325589zM332.53614251 255.36142791l43.48642076 0 0 381.03185636-43.48642076 0 0-381.03185636ZM676.05557703 597.82368142c24.48279666-26.07322339 36.72535837-60.76339427 36.72535836-104.07749859 0-44.19081899-11.36002731-78.75408213-34.07309482-103.67931051-22.71772558-24.92522837-54.31785699-37.38784313-94.79690354-37.38784313-42.42574791 0-76.10181746 12.81888825-101.02704583 38.44851598-24.92522837 25.63428466-37.38784313 61.25239865-37.38784313 106.86132907 0 41.89599289 11.97361038 75.53131293 35.92898105 100.89548117 23.95187769 25.36882517 55.99211293 38.0514907 96.12303474 38.0514907C618.73500274 636.93584498 651.57045134 623.90039779 676.05557703 597.82368142zM490.04314169 496.39844637c0-33.4106112 8.12794425-59.61656434 24.3943094-78.6213524 16.26287331-19.00129507 38.35770083-28.50543616 66.29146738-28.50543616 28.10841088 0 49.71889209 9.19327403 64.83377038 27.57749305 15.11371435 18.387712 22.67231801 44.54709248 22.67231801 78.48862265 0 33.58874851-7.55743971 59.48732757-22.67231801 77.69340928-15.11371435 18.20957469-36.72535837 27.31203357-64.83377038 27.31203356-27.57749305 0-49.58499726-9.28176014-66.02600789-27.84295139C498.26306503 553.94023651 490.04314169 528.57374037 490.04314169 496.39844637zM1014.0085157 608.82859805L1014.0085157 359.04306631l-43.48758471 0 0 37.65330148-1.05950891 0c-17.6798208-29.34256413-44.81255197-44.01733859-81.40634567-44.0173386-38.54049507 0-68.90181746 13.61410162-91.08280206 40.83532004-22.18797056 27.22471139-33.27904541 63.90466219-33.27904541 110.04334648 0 40.66184078 10.29702542 73.05252864 30.89224021 97.1837076 20.59172181 24.13001501 47.76986169 36.19444053 81.53791147 36.19444053 41.53971939 0 72.65433941-17.32238222 93.33804146-51.9729664l1.05950891 0 0 29.69883875c0 27.85343033-5.15666261 50.22186723-15.42108843 67.15886706l-21.98538354 23.2579584c-0.31436003 0.21306595-0.62173411 0.43195392-0.93958599 0.64036182-6.8774912 4.24851229-55.55084515 31.51630222-125.22226119-0.53906888-75.29030429-34.64127033-182.40544882-37.47865827-208.79652409 53.20246272l31.04825572 23.92859194c0 0 0-42.69004231 48.12380728-59.76675784 35.74735075-12.68499456 74.66391325 3.34851299 105.45602447 16.56326144l0 0.18279424c8.83816334 4.48253611 18.21423161 8.15705088 28.1049179 11.06080313 0.16300146 0.05239353 0.32833081 0.10711495 0.49016832 0.15834453 1.38318279 0.43428181 2.87348053 0.83829191 4.44760747 1.21319538 16.85782755 4.42781355 35.18150315 6.66093227 54.99081955 6.66093227C966.27940466 758.38113337 1014.0085157 708.53067662 1014.0085157 608.82859805zM947.58431858 574.35731399c-15.29185166 17.32703915-35.13376768 25.98590123-59.52924217 25.98590123-24.04269283 0-43.35369102-9.05705131-57.9388143-27.18046777-14.58279538-18.11875954-21.87593955-42.29301817-21.87593955-72.52277476 0-35.17568227 7.59818923-62.53312341 22.80388267-82.06766535 15.20220046-19.53104896 36.23635513-29.30064953 63.10944882-29.30064953 21.7443749 0 39.90737693 7.68900437 54.49133738 23.06934216 14.58395933 15.37917383 21.87593955 33.85420686 21.87593956 55.41928049l0 40.04010667C970.52093099 534.84696235 962.87384121 557.03493291 947.58431858 574.35731399z" /></svg>