<?xml version="1.0" standalone="no"?>
<!DOCTYPE svg PUBLIC "-//W3C//DTD SVG 1.1//EN" "http://www.w3.org/Graphics/SVG/1.1/DTD/svg11.dtd">
<svg class="icon" style="width: 1em;height: 1em;vertical-align: middle;fill: currentColor;overflow: hidden;" viewBox="0 0 1024 1024" version="1.1" xmlns="http://www.w3.org/2000/svg"><path d="M970.13086 686.964423a54.60719 54.60719 0 0 0-54.60719 53.753953v174.913655H108.361143V108.469504h174.913655A54.60719 54.60719 0 0 0 341.294938 53.862314 53.753953 53.753953 0 0 0 284.128036 0.108361H53.753953A53.753953 53.753953 0 0 0 0 53.862314v916.376907a57.166902 57.166902 0 0 0 15.358272 38.395681 57.166902 57.166902 0 0 0 38.395681 15.358272h916.376907a52.900715 52.900715 0 0 0 53.753953-53.753953V740.718376a53.753953 53.753953 0 0 0-53.753953-53.753953zM426.618672 247.547191m51.194241 0l494.877659 0q51.194241 0 51.194241 51.194241l0 0q0 51.194241-51.194241 51.19424l-494.877659 0q-51.194241 0-51.194241-51.19424l0 0q0-51.194241 51.194241-51.194241ZM674.057502 597.374502m0-51.194241l0-494.877659q0-51.194241 51.194241-51.194241l0 0q51.194241 0 51.19424 51.194241l0 494.877659q0 51.194241-51.19424 51.194241l0 0q-51.194241 0-51.194241-51.194241Z" /></svg>