<?xml version="1.0" standalone="no"?>
<!DOCTYPE svg PUBLIC "-//W3C//DTD SVG 1.1//EN" "http://www.w3.org/Graphics/SVG/1.1/DTD/svg11.dtd">
<svg class="icon" style="width: 1.53515625em;height: 1em;vertical-align: middle;fill: currentColor;overflow: hidden;" viewBox="0 0 1572 1024" version="1.1" xmlns="http://www.w3.org/2000/svg"><path d="M157.257 700.343H179.2c5.486 0 10.971 5.486 10.971 10.971s-3.657 10.972-10.971 10.972h-21.943v21.943c0 5.485-5.486 10.971-10.971 10.971-3.657 0-5.486-1.829-7.315-1.829-1.828-1.828-3.657-5.485-3.657-7.314v-21.943H115.2c-5.486 0-10.971-5.485-10.971-10.971s3.657-10.972 10.971-10.972h21.943V680.23c0-5.486 5.486-10.972 10.971-10.972s10.972 3.657 10.972 10.972v20.114z m1382.4-84.114v-21.943c0-1.829-1.828-5.486-3.657-7.315-1.829-1.828-3.657-1.828-7.314-1.828-5.486 0-10.972 5.486-10.972 10.971v21.943h-21.943c-3.657 0-5.485 1.829-7.314 3.657-1.828 1.829-3.657 5.486-3.657 7.315 0 5.485 5.486 10.971 10.971 10.971h21.943v18.286c0 5.485 5.486 10.971 10.972 10.971s10.971-5.486 10.971-10.971v-21.943h21.943c5.486 0 10.971-5.486 10.971-10.972s-5.485-10.971-10.971-10.971h-21.943zM778.971 960H252.343c-5.486 0-10.972-1.829-14.629-5.486s-5.485-9.143-5.485-14.628c0-10.972 9.142-20.115 20.114-20.115h95.086c-7.315-12.8-10.972-27.428-10.972-42.057V272.457c0-21.943 9.143-43.886 25.6-58.514s36.572-23.772 58.514-23.772h62.172V168.23c0-21.943 9.143-43.886 25.6-58.515s36.571-23.771 58.514-23.771h502.857c21.943 0 43.886 9.143 58.515 23.771 16.457 16.457 25.6 36.572 25.6 58.515v605.257c0 14.628-3.658 29.257-10.972 42.057h115.2c10.972 0 20.114 9.143 20.114 20.114 0 10.972-9.142 20.114-20.114 20.114h-252.343v21.943c0 14.629-3.657 29.257-10.971 42.057h10.971c10.972 0 20.115 9.143 20.115 20.115S1016.686 960 1005.714 960H896c9.143 16.457 7.314 36.571-5.486 51.2-7.314 7.314-18.285 12.8-29.257 12.8-10.971 0-21.943-3.657-29.257-12.8L778.971 960z m76.8-40.229h67.658c23.771 0 42.057-18.285 42.057-42.057V270.63c0-21.943-18.286-40.229-40.229-40.229H416.914c-21.943 0-40.228 18.286-40.228 40.229v607.085c0 23.772 18.285 42.057 42.057 42.057h318.171L725.943 908.8c-10.972-10.971-14.629-25.6-10.972-40.229l-20.114-20.114c-62.171 45.714-148.114 36.572-197.486-21.943C448 768 449.83 682.057 504.686 627.2S647.314 570.514 704 619.886s67.657 137.143 21.943 197.485l20.114 20.115c14.629-3.657 29.257 0 40.229 10.971l69.485 71.314z m149.943-104.228h62.172c23.771 0 42.057-18.286 42.057-42.057V168.229c0-23.772-18.286-42.058-42.057-42.058H565.029c-23.772 0-42.058 18.286-42.058 42.058v20.114H921.6c21.943 0 43.886 9.143 58.514 23.771 16.457 16.457 25.6 36.572 25.6 58.515v544.914z m-738.743-768h31.086c9.143 0 16.457 7.314 16.457 16.457s-7.314 16.457-16.457 16.457h-31.086v29.257a16.389 16.389 0 0 1-16.457 16.457c-3.657 0-9.143-1.828-10.971-5.485-1.829-1.829-3.657-5.486-3.657-10.972V78.63H204.8c-3.657 0-9.143-1.829-10.971-5.486-3.658-3.657-5.486-7.314-5.486-10.972A16.389 16.389 0 0 1 204.8 45.714h31.086V16.457C235.886 7.314 243.2 0 252.343 0S268.8 7.314 268.8 16.457v31.086zM21.943 939.886c0-10.972 9.143-20.115 20.114-20.115H168.23c10.971 0 20.114 9.143 20.114 20.115S179.2 960 168.229 960H42.057c-5.486 0-10.971-1.829-14.628-5.486-3.658-3.657-5.486-9.143-5.486-14.628zM682.057 804.57c40.229-40.228 40.229-106.057 0-148.114-40.228-40.228-107.886-40.228-148.114 0-40.229 40.229-40.229 106.057 0 148.114s106.057 42.058 148.114 0zM460.8 314.514c0-10.971 9.143-20.114 20.114-20.114h232.229c10.971 0 20.114 9.143 20.114 20.114s-9.143 20.115-20.114 20.115H480.914c-5.485 0-10.971-1.829-14.628-5.486S460.8 320 460.8 314.514z m0 104.229c0-10.972 9.143-20.114 20.114-20.114h334.629c10.971 0 20.114 9.142 20.114 20.114s-7.314 20.114-18.286 20.114H480.914c-5.485 0-10.971-1.828-14.628-5.486s-5.486-9.142-5.486-14.628z m0 104.228c0-10.971 9.143-20.114 20.114-20.114H627.2c10.971 0 20.114 9.143 20.114 20.114s-9.143 20.115-20.114 20.115H480.914c-5.485 0-10.971-1.829-14.628-5.486s-5.486-9.143-5.486-14.629zM64 396.8c-21.943 0-43.886-12.8-54.857-31.086-10.972-20.114-10.972-43.885 0-62.171S40.229 272.457 64 272.457c34.743 0 62.171 27.429 62.171 62.172S96.914 396.8 64 396.8z m0-31.086c10.971 0 21.943-5.485 27.429-16.457 5.485-9.143 5.485-21.943 0-31.086S74.97 301.714 64 301.714c-16.457 0-31.086 14.629-31.086 31.086-1.828 20.114 12.8 32.914 31.086 32.914z m1298.286-93.257c-21.943 0-43.886-10.971-54.857-31.086-10.972-20.114-10.972-43.885 0-62.171s31.085-31.086 54.857-31.086c34.743 0 62.171 27.429 62.171 62.172s-27.428 62.171-62.171 62.171z m0-31.086c10.971 0 21.943-5.485 27.428-16.457 5.486-9.143 5.486-21.943 0-31.085s-16.457-16.458-27.428-16.458c-16.457 0-31.086 14.629-31.086 31.086-1.829 18.286 12.8 32.914 31.086 32.914z" /></svg>