<?xml version="1.0" standalone="no"?>
<!DOCTYPE svg PUBLIC "-//W3C//DTD SVG 1.1//EN" "http://www.w3.org/Graphics/SVG/1.1/DTD/svg11.dtd">
<svg class="icon" style="width: 1em;height: 1em;vertical-align: middle;fill: currentColor;overflow: hidden;" viewBox="0 0 1024 1024" version="1.1" xmlns="http://www.w3.org/2000/svg"><path d="M544.30896594 281.64965563c-68.82206906 0-124.83310312-55.9944825-124.83310407-124.81655251C419.47586188 88.02758656 475.48689687 32 544.30896594 32c68.82206906 0 124.8 55.9944825 124.8 124.83310312 0 68.82206906-55.97793094 124.81655156-124.8 124.8165525z m-265.73793188 99.12827531c-62.86344844 0-114.02482781-51.14482781-114.02482687-114.04137938s51.16137938-114.04137937 114.02482687-114.04137937a114.15724125 114.15724125 0 0 1 114.00827625 114.04137937c0 62.86344844-51.14482781 114.04137937-114.00827625 114.04137938zM165.63862062 638.73655156A100.6344825 100.6344825 0 0 1 65.10344844 538.15172375a100.6344825 100.6344825 0 0 1 100.53517218-100.53517219 100.6344825 100.6344825 0 0 1 100.51862063 100.53517219 100.6344825 100.6344825 0 0 1-100.51862063 100.56827625z m112.93241344 255.55862063a85.35724125 85.35724125 0 0 1-85.25793094-85.2744825 85.37379281 85.37379281 0 0 1 85.24137938-85.25793094 85.37379281 85.37379281 0 0 1 85.25793094 85.25793094c0 47.00689688-38.2344825 85.2744825-85.24137938 85.2744825zM544.30896594 992a74.54896594 74.54896594 0 0 1-74.48275875-74.48275875c0-41.08137937 33.41793094-74.48275875 74.48275875-74.48275875a74.54896594 74.54896594 0 0 1 74.46620625 74.48275875c0 41.08137937-33.40137937 74.48275875-74.48275875 74.48275875z m269.76-125.89241344a60.18206906 60.18206906 0 0 1-60.11586281-60.11586281 60.18206906 60.18206906 0 0 1 60.11586281-60.11586188 60.18206906 60.18206906 0 0 1 60.11586187 60.11586188 60.18206906 60.18206906 0 0 1-60.11586187 60.11586281z m110.48275781-278.15172469a49.39034437 49.39034437 0 0 1-49.32413719-49.32413812 49.39034437 49.39034437 0 0 1 49.32413719-49.34068969 49.40689688 49.40689688 0 0 1 49.34068969 49.32413813 49.42344844 49.42344844 0 0 1-49.34068969 49.34068968z m-148.75034437-317.52827531a38.26758656 38.26758656 0 1 0 76.55172375 0.01655156 38.26758656 38.26758656 0 0 0-76.55172375 0z" /></svg>