<?xml version="1.0" standalone="no"?>
<!DOCTYPE svg PUBLIC "-//W3C//DTD SVG 1.1//EN" "http://www.w3.org/Graphics/SVG/1.1/DTD/svg11.dtd">
<svg class="icon" style="width: 1em;height: 1em;vertical-align: middle;fill: currentColor;overflow: hidden;" viewBox="0 0 1024 1024" version="1.1" xmlns="http://www.w3.org/2000/svg"><path d="M560.6 410.36l243.84-14.20000031a133.75999969 133.75999969 0 0 1 128.71999969 170.16l-36.72 129.80000062-2.55999938 9.07999969c-47.32000031 168.84-125.59999969 258.31999969-236.4 258.31999969H221.04000031A141.07999969 141.07999969 0 0 1 80 822.39999969v-290.91999938C80 459.2 127.68000031 416.12 211.11999969 392a197.28 197.28 0 0 0 123.56000062-119.20000031l55.63999969-150.96a101.04 101.04 0 0 1 192.64000031 9.72c19.84000031 76.92 9.36 166.32-30.28000031 267.92000062a7.99999969 7.99999969 0 0 0 7.92 10.87999969z m3.72 63.88000031a72 72 0 0 1-71.28-98.04c35.11999969-90 44.08000031-166.15999969 27.96-228.64000031a37.03999969 37.03999969 0 0 0-70.60000031-3.6L394.71999969 294.99999969A261.76000031 261.76000031 0 0 1 230 453.2c-60.24 17.44000031-85.96000031 40.68-85.96000031 78.36v290.92000031c0 42.55999969 34.51999969 77.08000031 77.08000031 77.07999938h436.39999969c75.52000031 0 134.32000031-67.2 174.80000062-211.59999938l2.59999969-9.20000062 36.72-129.79999969c1.72000031-6.19999969 2.59999969-12.55999969 2.59999969-19.00000031 0-38.52-31.2-69.76000031-67.87999969-69.84l-241.99999969 14.16z" /></svg>